<svg xmlns="http://www.w3.org/2000/svg" viewBox="0 0 64 64"><defs><style>.cls-1{fill:#f40e34;}.cls-2{fill:#bdccd4;}.cls-3{fill:#b30222;}.cls-4{fill:#ffd422;}.cls-5{fill:#06aae9;}.cls-6{fill:#1e81ce;}.cls-7{fill:#ff9811;}.cls-8{fill:#666;}.cls-9{fill:#d60330;}.cls-10{fill:#333;}.cls-11{fill:#ccc;}</style></defs><g id="Flat_Icons" data-name="Flat Icons"><path class="cls-1" d="M54,25h-.15l-13-2a1,1,0,1,1,.3-2l13,2A1,1,0,0,1,54,25Z"></path><rect class="cls-2" x="1" y="43" width="4" height="6"></rect><path class="cls-1" d="M16,27V40H15a6,6,0,0,0-6,6H5V35l2-8Z"></path><polygon class="cls-3" points="2 43 2 35 4 27 7 27 5 35 5 43 2 43"></polygon><rect class="cls-2" x="2" y="39" width="3" height="2"></rect><rect class="cls-4" x="4" y="39" width="1" height="2"></rect><rect class="cls-1" x="5" y="46" width="4" height="3"></rect><polygon class="cls-5" points="5 35 7 27 16 27 16 33 11 33 9 35 5 35"></polygon><polygon class="cls-6" points="4 27 7 27 5 35 2 35 4 27"></polygon><rect class="cls-4" x="9" y="23" width="4" height="4"></rect><rect class="cls-3" x="16" y="27" width="4" height="6"></rect><rect class="cls-5" x="20" y="27" width="6" height="6"></rect><path class="cls-1" d="M26,33V49H23V46a6,6,0,0,0-6-6H16V33Z"></path><rect class="cls-1" x="26" y="45" width="10" height="4"></rect><rect class="cls-2" x="26" y="29" width="10" height="16"></rect><path class="cls-1" d="M42,49V46a6,6,0,0,1,6-6h2a6,6,0,0,1,6,6v3h7V45H62V27H36V49Z"></path><rect class="cls-2" x="59" y="41" width="3" height="2"></rect><rect class="cls-7" x="59" y="43" width="3" height="2"></rect><rect class="cls-2" x="36" y="27" width="26" height="4"></rect><rect class="cls-3" x="54" y="21" width="4" height="6"></rect><path class="cls-2" d="M52,14H4.94a.58.58,0,0,0-.18,0,.6.6,0,0,0-.19.06.65.65,0,0,0-.15.1l-.13.08-4,4a1,1,0,0,0-.21,1.09A1,1,0,0,0,1,20H52a1,1,0,0,0,1-1V15A1,1,0,0,0,52,14ZM20.35,18l-2.5-2h20.3l-2.5,2ZM15,16.28,17.15,18h-4.3Zm-5,1.44L7.85,16h4.3Zm31-1.44L43.15,18h-4.3ZM43.85,16h4.3L46,17.72Zm-38.78.34L7.15,18H3.41ZM48.85,18,51,16.28V18Z"></path><path class="cls-3" d="M37,19v2a2,2,0,0,0,2,2h0a2,2,0,0,0,2-2V19Z"></path><rect class="cls-2" x="56" y="45" width="7" height="4"></rect><path class="cls-1" d="M31,43a3,3,0,1,1,3-3A3,3,0,0,1,31,43Zm0-4a1,1,0,1,0,1,1A1,1,0,0,0,31,39Z"></path><path class="cls-1" d="M32,36H30a1,1,0,0,1,0-2h2a1,1,0,0,1,0,2Z"></path><path class="cls-1" d="M32,33H30a1,1,0,0,1,0-2h2a1,1,0,0,1,0,2Z"></path><path class="cls-8" d="M23,46v1H20a3.95,3.95,0,1,0-7.9,0H9V46a6,6,0,0,1,6-6h2A6,6,0,0,1,23,46Z"></path><path class="cls-8" d="M56,46v1H53a4,4,0,0,0-7.9,0H42V46a6,6,0,0,1,6-6h2A6,6,0,0,1,56,46Z"></path><rect class="cls-1" x="36" y="45" width="6" height="4"></rect><rect class="cls-3" x="42" y="31" width="14" height="4"></rect><rect class="cls-9" x="56" y="31" width="6" height="8"></rect><rect class="cls-9" x="36" y="31" width="6" height="8"></rect><path class="cls-1" d="M49,44.05a3,3,0,0,0-3,3,2.82,2.82,0,0,0,.41,1.48A2.95,2.95,0,1,0,49,44.05Zm0,5a2,2,0,1,1,2-2A2,2,0,0,1,49,49Z"></path><path class="cls-10" d="M49,42.05a5,5,0,0,0-5,5,4.82,4.82,0,0,0,.69,2.5A4.95,4.95,0,1,0,49,42.05Zm2.54,6.45a2.94,2.94,0,0,1-5.08,0A2.82,2.82,0,0,1,46.05,47a3,3,0,1,1,5.49,1.5Z"></path><circle class="cls-11" cx="49" cy="47" r="2"></circle><path class="cls-1" d="M16,44.05a3,3,0,0,0-2.95,3,2.82,2.82,0,0,0,.41,1.48A2.95,2.95,0,1,0,16,44.05Zm0,5a2,2,0,1,1,2-2A2,2,0,0,1,16,49Z"></path><path class="cls-10" d="M16,42.05a5,5,0,0,0-4.95,5,4.82,4.82,0,0,0,.69,2.5A4.95,4.95,0,1,0,16,42.05Zm2.54,6.45a2.94,2.94,0,0,1-5.08,0A2.82,2.82,0,0,1,13.05,47a3,3,0,1,1,5.49,1.5Z"></path><circle class="cls-11" cx="16" cy="47" r="2"></circle><polygon class="cls-1" points="4 27 26 27 26 29 3 29 4 27"></polygon><rect class="cls-1" x="20" y="15" width="16" height="4"></rect><path class="cls-2" d="M12,38H11a1,1,0,0,1,0-2h1a1,1,0,0,1,0,2Z"></path><path class="cls-2" d="M22,38H21a1,1,0,0,1,0-2h1a1,1,0,0,1,0,2Z"></path><rect class="cls-1" x="52" y="13" width="8" height="8"></rect><rect class="cls-2" x="9" y="25" width="4" height="2"></rect></g></svg>