<svg xmlns="http://www.w3.org/2000/svg" xmlns:xlink="http://www.w3.org/1999/xlink" fill="#ffffff" height="800px" width="800px" id="Layer_2" viewBox="0 0 512 512" xml:space="preserve" stroke="#ffffff"><g stroke-width="0"></g><g stroke-linecap="round" stroke-linejoin="round"></g><g > <g> <g> <path d="M485.633,337.574l-33.216-37.178c-10.143-11.355-28.993-4.133-28.993,11.065v48.25c0,3.052-2.483,5.536-5.536,5.536 s-5.536-2.483-5.536-5.536v-26.228c0-17.303-4-34.357-11.469-49.803h1.738c14.738,0,22.199-17.895,11.743-28.351l-87.904-87.904 h36.068c14.738,0,22.199-17.895,11.743-28.351L241.409,6.212c-6.485-6.485-17.001-6.485-23.487,0L85.06,139.074 c-10.425,10.425-3.038,28.351,11.743,28.351h36.068L44.97,255.327c-10.425,10.425-3.038,28.351,11.743,28.351h36.068 L4.878,371.582c-10.425,10.425-3.038,28.351,11.743,28.351h163.223v94.111c0,9.172,7.436,16.608,16.608,16.608h66.431 c9.172,0,16.608-7.436,16.608-16.608c0-10.599,0-81.82,0-94.111h0.115c-2.859,56.123,49.43,110.719,116.139,110.719 c64.585,0,116.254-51.33,116.254-106.653C512,367.509,486.716,338.786,485.633,337.574z M246.275,477.436H213.06v-77.503h33.216 V477.436z M305.86,337.573c-0.665,0.745-10.588,12.022-18.066,29.143c-1.293,0.001-226.333,0.001-231.077,0.001l87.903-87.904 c10.425-10.425,3.038-28.351-11.743-28.351H96.809l87.903-87.904c10.425-10.425,3.038-28.351-11.743-28.351h-36.068l92.768-92.768 l92.768,92.768h-36.068c-14.738,0-22.199,17.895-11.743,28.351l64.199,64.199c-5.392-2.064-10.942-3.747-16.623-4.975 l-0.456-0.099c-7.033-1.515-14.238,1.665-17.856,7.882c-3.617,6.216-2.822,14.055,1.97,19.418 c0.179,0.2,17.921,20.716,17.921,44.294C323.781,316.897,305.995,337.42,305.86,337.573z M395.745,477.436 c-46.564,0-83.039-36.786-83.039-73.437c0-15.767,8.566-33.595,17.922-44.295c1.076-1.205,26.365-29.932,26.365-66.423 c0-5.954-0.672-11.7-1.805-17.155c14.872,14.862,23.948,35.336,23.948,57.358v26.228c0,21.368,17.384,38.751,38.751,38.751 c21.368,0,38.751-17.384,38.751-38.751v-4.733l4.223,4.728c0.179,0.2,17.921,20.717,17.921,44.294 C478.784,440.615,442.342,477.436,395.745,477.436z"></path> </g> </g> </g></svg>